<?xml version="1.0" standalone="no"?><!DOCTYPE svg PUBLIC "-//W3C//DTD SVG 1.1//EN" "http://www.w3.org/Graphics/SVG/1.1/DTD/svg11.dtd"><svg t="1692586309329" class="icon" viewBox="0 0 1024 1024" version="1.1" xmlns="http://www.w3.org/2000/svg" p-id="10460" xmlns:xlink="http://www.w3.org/1999/xlink" width="200" height="200"><path d="M782.4 589.6c-31.2 0-61.6 8-87.2 21.6 0-2.4-0.8-4-2.4-6.4-28.8-40.8-67.2-72.8-111.2-95.2 126.4-64 205.6-193.6 205.6-336 10.4-4 16.8-14.4 16.8-26.4v-64c0-16-12.8-29.6-29.6-29.6H87.2c-16 0-29.6 12.8-29.6 29.6v63.2c0 16 12.8 29.6 29.6 29.6h4c4 141.6 78.4 264.8 196 325.6-120 60-205.6 202.4-208.8 355.2-12 4-20 14.4-20 28v63.2c0 16 12.8 29.6 29.6 29.6h665.6c8 0 14.4-6.4 14.4-14.4 0-4-1.6-6.4-3.2-8.8 5.6 0.8 12 0.8 17.6 0.8 100.8 0 182.4-81.6 182.4-182.4s-81.6-183.2-182.4-183.2zM87.2 83.2h687.2v63.2H87.2v-63.2zM328 516.8c7.2-3.2 12-11.2 8.8-19.2-2.4-4.8-6.4-8.8-11.2-9.6-0.8-0.8-2.4-1.6-3.2-2.4C201.6 433.6 124.8 316 120.8 176h636.8c-0.8 138.4-82.4 263.2-210.4 317.6-1.6 0.8-2.4 1.6-3.2 2.4-4.8 0.8-9.6 4-11.2 9.6-3.2 7.2 0.8 16 8.8 19.2 52 19.2 96 53.6 128 97.6l4 4C628.8 659.2 600 712.8 600 772c0 29.6 6.4 56.8 19.2 80.8H532c-0.8-52.8-34.4-96-79.2-105.6V433.6C552.8 427.2 632 335.2 632 222.4H250.4c0 106.4 71.2 194.4 163.2 209.6v315.2c-44.8 10.4-79.2 54.4-79.2 106.4-100 0.8-188.8 1.6-227.2 1.6 5.6-152 96.8-293.6 220.8-338.4z m-240.8 432v-63.2c4 0 332.8-2.4 533.6-2.4 4 0 8.8-2.4 11.2-4.8 24 34.4 60 60 100.8 71.2H87.2z m695.2-23.2c-84.8 0-153.6-68.8-153.6-153.6s68.8-153.6 153.6-153.6S936 688 936 772s-68.8 153.6-153.6 153.6z" fill="#27B1BD" p-id="10461"></path><path d="M906.4 764.8c-4 0-7.2 3.2-7.2 7.2 0 64-52.8 116.8-116.8 116.8s-116.8-52.8-116.8-116.8 52.8-116.8 116.8-116.8c4 0 7.2-3.2 7.2-7.2s-3.2-7.2-7.2-7.2c-72 0-131.2 59.2-131.2 131.2S709.6 904 782.4 904s131.2-59.2 131.2-131.2c0-4.8-3.2-8-7.2-8z" fill="#27B1BD" p-id="10462"></path><path d="M781.6 686.4v84.8c0 2.4 0.8 4 0.8 4.8-0.8 2.4-0.8 4 0 7.2 1.6 6.4 7.2 11.2 13.6 11.2 1.6 0 2.4 0 4-0.8l81.6-21.6c8-2.4 12.8-10.4 10.4-17.6-2.4-8-10.4-12.8-17.6-10.4l-63.2 16.8v-74.4c0-8-6.4-14.4-14.4-14.4s-15.2 6.4-15.2 14.4z" fill="#53DBEA" p-id="10463"></path></svg>